<svg id="visual" viewBox="0 0 960 540" width="960" height="540" xmlns="http://www.w3.org/2000/svg" xmlns:xlink="http://www.w3.org/1999/xlink" version="1.1"><rect x="0" y="0" width="960" height="540" fill="#d5d5d5"></rect><defs><linearGradient id="grad1_0" x1="43.8%" y1="0%" x2="100%" y2="100%"><stop offset="14.444444444444446%" stop-color="#d5d5d5" stop-opacity="1"></stop><stop offset="85.55555555555554%" stop-color="#d5d5d5" stop-opacity="1"></stop></linearGradient></defs><defs><linearGradient id="grad2_0" x1="0%" y1="0%" x2="56.3%" y2="100%"><stop offset="14.444444444444446%" stop-color="#d5d5d5" stop-opacity="1"></stop><stop offset="85.55555555555554%" stop-color="#d5d5d5" stop-opacity="1"></stop></linearGradient></defs><g transform="translate(960, 0)"><path d="M0 486C-56.5 467.1 -113.1 448.3 -177.9 429.6C-242.8 411 -316 392.5 -343.7 343.7C-371.3 294.8 -353.4 215.4 -369.6 153.1C-385.7 90.7 -435.8 45.4 -486 0L0 0Z" fill="#212121"></path></g><g transform="translate(0, 540)"><path d="M0 -486C41.8 -430.7 83.7 -375.4 149.6 -361.2C215.6 -347.1 305.7 -374.1 343.7 -343.7C381.6 -313.2 367.5 -225.3 382.5 -158.4C397.5 -91.6 441.8 -45.8 486 0L0 0Z" fill="#212121"></path></g></svg>