<svg id="visual" viewBox="0 0 900 600" width="900" height="600" xmlns="http://www.w3.org/2000/svg" xmlns:xlink="http://www.w3.org/1999/xlink" version="1.1"><rect x="0" y="0" width="900" height="600" fill="#fdfdfd"></rect><defs><linearGradient id="grad1_0" x1="33.3%" y1="0%" x2="100%" y2="100%"><stop offset="20%" stop-color="#fdfdfd" stop-opacity="1"></stop><stop offset="80%" stop-color="#fdfdfd" stop-opacity="1"></stop></linearGradient></defs><defs><linearGradient id="grad2_0" x1="0%" y1="0%" x2="66.7%" y2="100%"><stop offset="20%" stop-color="#fdfdfd" stop-opacity="1"></stop><stop offset="80%" stop-color="#fdfdfd" stop-opacity="1"></stop></linearGradient></defs><g transform="translate(900, 0)"><path d="M0 405.6C-38.9 366.7 -77.8 327.8 -130.1 314.1C-182.5 300.4 -248.2 312 -286.8 286.8C-325.4 261.6 -336.7 199.7 -352 145.8C-367.3 91.9 -386.4 45.9 -405.6 0L0 0Z" fill="#212121"></path></g><g transform="translate(0, 600)"><path d="M0 -405.6C58 -405.3 116.1 -404.9 155.2 -374.7C194.4 -344.6 214.6 -284.7 242.5 -242.5C270.4 -200.4 306 -176 334.4 -138.5C362.9 -101.1 384.3 -50.5 405.6 0L0 0Z" fill="#212121"></path></g></svg>